PathFileType	4	(X/Y/Z)	C:\Users\Basilio\Documents\Thesis Gigler\squatting_fais\c3dfiles\038\SLS_front_pre4\markers_experimental.trc
DataRate	CameraRate	NumFrames	NumMarkers	Units	OrigDataRate	OrigDataStartFrame	OrigNumFrames
200.000000	200.000000	4	61	mm	200.000000	1056	1408
Frame#	Time	FHD			LBHD			RBHD			C7			T10			CLAV			LSHO			LUUPA			LMUPA			LDUPA			LLEP			LMEP			LRAD			LUL			LRFIN			RSHO			RUPA1			RMUPA			RDUPA			RLEP			RMEP			RRAD			RUL			RUFIN			LASI			RASI			USACR			LSACR			RSACR			LTHI1			LTHI2			LTHI3			LTHI4			LLFC			LMFC			LTIB1			LTIB2			LTIB3			LTIB4			LLMAL			LMMAL			LHEE			LMT1			LMT2			LMT5			RTHI			RTHI2			RTHI3			RTHI4			RLFC			RMFC			RTIB1			RTIB2			RTIB3			RTIB4			RLMAL			RMMAL			RHEE			RMT1			RMT2			RMT5			
		X1	Y1	Z1	X2	Y2	Z2	X3	Y3	Z3	X4	Y4	Z4	X5	Y5	Z5	X6	Y6	Z6	X7	Y7	Z7	X8	Y8	Z8	X9	Y9	Z9	X10	Y10	Z10	X11	Y11	Z11	X12	Y12	Z12	X13	Y13	Z13	X14	Y14	Z14	X15	Y15	Z15	X16	Y16	Z16	X17	Y17	Z17	X18	Y18	Z18	X19	Y19	Z19	X20	Y20	Z20	X21	Y21	Z21	X22	Y22	Z22	X23	Y23	Z23	X24	Y24	Z24	X25	Y25	Z25	X26	Y26	Z26	X27	Y27	Z27	X28	Y28	Z28	X29	Y29	Z29	X30	Y30	Z30	X31	Y31	Z31	X32	Y32	Z32	X33	Y33	Z33	X34	Y34	Z34	X35	Y35	Z35	X36	Y36	Z36	X37	Y37	Z37	X38	Y38	Z38	X39	Y39	Z39	X40	Y40	Z40	X41	Y41	Z41	X42	Y42	Z42	X43	Y43	Z43	X44	Y44	Z44	X45	Y45	Z45	X46	Y46	Z46	X47	Y47	Z47	X48	Y48	Z48	X49	Y49	Z49	X50	Y50	Z50	X51	Y51	Z51	X52	Y52	Z52	X53	Y53	Z53	X54	Y54	Z54	X55	Y55	Z55	X56	Y56	Z56	X57	Y57	Z57	X58	Y58	Z58	X59	Y59	Z59	X60	Y60	Z60	X61	Y61	Z61	

1057	5.28	-223.9649505615235	1683.435546875	-1116.670166015625	-378.9170532226563	1633.44384765625	-1180.14404296875	-373.4690246582032	1620.66552734375	-1035.48779296875	-432.6893005371095	1463.642944335938	-1101.155395507813	-455.9974975585939	1183.876342773438	-1065.413940429688	-288.3452758789063	1434.563720703125	-1108.59033203125	-346.8038024902344	1467.392211914063	-1251.783569335938	-184.4298858642578	1406.100952148438	-1381.823852539063	-156.3421325683594	1439.07763671875	-1354.049560546875	-115.4840850830078	1413.23095703125	-1388.95458984375	-52.64499664306642	1415.19775390625	-1389.592041015625	-43.33131790161134	1340.052124023438	-1369.003295898438	228.0802154541016	1402.01708984375	-1274.250732421875	241.4863586425782	1425.1884765625	-1342.020629882813	298.2113037109376	1433.953125	-1247.27294921875	-330.6354370117188	1480.476806640625	-968.9368286132815	-180.1907348632813	1457.426635742188	-841.2256469726565	-142.8177032470703	1461.853149414063	-872.122741699219	-113.6695098876953	1451.482788085938	-820.0118408203127	-41.29934310913087	1446.180419921875	-805.0676879882815	-38.43468856811524	1365.889892578125	-814.6541748046877	236.7181701660157	1422.26611328125	-878.743591308594	246.1935272216797	1445.17919921875	-812.4168090820315	318.7781372070313	1453.902954101563	-885.5443115234377	-289.2463073730469	985.1480102539065	-1151.787719726563	-317.5355224609376	1024.047729492188	-905.9350585937502	-470.7047729492189	1031.492065429688	-1044.701171875	-478.7696533203126	998.6512451171877	-1069.281616210938	-483.1985473632814	1004.241455078125	-1013.109680175781	-233.9955139160157	679.9881591796876	-1201.436767578125	-177.9938049316407	615.0880737304689	-1197.970825195313	-134.7230682373047	635.8500976562501	-1179.573120117188	-187.610824584961	559.5537719726564	-1178.197387695313	-171.0438537597657	504.7420959472657	-1168.4619140625	-156.3577270507813	506.4383239746095	-1054.354614257813	-179.2291412353516	324.2858276367188	-1077.682006835938	-236.5569305419922	291.6086730957032	-1137.2392578125	-202.6727447509766	279.3603515625001	-1107.723266601563	-240.0064239501954	212.8294525146485	-1069.59228515625	-361.4896545410157	112.174560546875	-1076.31005859375	-321.1130676269532	128.1956787109375	-1005.067138671875	-416.4981384277345	94.51811981201173	-1016.6416015625	-215.7041473388672	45.92449188232423	-1017.808044433594	-209.9161682128907	44.48561477661134	-1068.887573242188	-257.5704650878907	32.58520126342774	-1112.935180664063	-230.4414672851563	788.3441162109377	-836.1936645507815	-167.0377655029297	769.649597167969	-841.6065063476565	-142.938232421875	792.123962402344	-848.2724609375002	-139.003662109375	689.0551757812501	-855.3975830078127	-39.74535751342774	595.0939331054689	-867.901306152344	-42.60330963134766	593.8540039062501	-990.2608032226565	105.6713180541992	486.1178588867189	-895.6192016601565	96.94360351562503	374.6949462890626	-859.639099121094	130.6714019775391	406.4854736328126	-869.936706542969	170.7385864257813	375.0853881835938	-898.778259277344	199.9411773681641	238.4952545166016	-868.4287719726565	219.0604553222657	265.6703186035157	-948.1998291015627	194.9120330810547	161.6494750976563	-932.9427490234377	351.0849304199219	310.8820495605469	-914.5979614257815	342.4960632324219	314.3793640136719	-867.9790649414065	324.7937011718751	269.8837585449219	-825.0529785156252	
1058	5.285	-224.1396026611329	1684.737182617188	-1116.227416992188	-378.9465332031251	1634.988037109375	-1179.930297851563	-373.6023559570313	1622.22802734375	-1035.196411132813	-432.613494873047	1464.835571289063	-1100.988037109375	-455.8040161132814	1185.2294921875	-1065.35546875	-288.1333312988282	1436.16845703125	-1108.475830078125	-346.7406311035157	1468.700317382813	-1251.521118164063	-184.4218292236328	1407.425048828125	-1381.679565429688	-156.2531433105469	1440.457885742188	-1353.942626953125	-115.4471206665039	1414.50146484375	-1388.887817382813	-52.62765502929689	1416.713745117188	-1389.3916015625	-43.39093399047852	1341.530639648438	-1368.826538085938	227.9287872314454	1403.600830078125	-1274.388305664063	241.4633331298829	1426.186889648438	-1341.906372070313	298.2474365234376	1434.877319335938	-1247.108764648438	-330.6401672363282	1481.974853515625	-968.6963500976565	-180.1485595703125	1458.549438476563	-840.8380126953127	-142.8919372558594	1463.018798828125	-871.7672119140627	-113.8000640869141	1452.762817382813	-819.5601196289065	-41.27803039550782	1447.1982421875	-804.8477172851565	-38.32996368408204	1367.175048828125	-814.2666625976565	236.6541137695313	1423.061767578125	-878.348083496094	246.1853485107422	1445.95458984375	-811.951599121094	318.5927734375001	1454.448486328125	-884.629577636719	-289.0755310058594	986.2675781250002	-1151.549682617188	-317.3314819335938	1025.370849609375	-905.8624267578127	-470.4732666015626	1033.188598632813	-1044.627197265625	-478.4490966796876	999.9447021484377	-1069.197509765625	-482.9713439941407	1005.6650390625	-1013.101928710938	-234.7536926269532	681.0207519531251	-1201.328002929688	-178.8909606933594	615.9081420898439	-1197.70068359375	-135.7017974853516	636.5192871093751	-1179.357055664063	-188.3852996826172	560.1904907226564	-1177.865600585938	-172.4212341308594	505.0638427734376	-1168.433227539063	-157.897201538086	507.2484436035157	-1054.072265625	-179.8234252929688	324.8680725097657	-1077.654052734375	-237.2554016113282	291.9837341308594	-1136.982177734375	-203.4149932861329	279.2187805175782	-1107.927978515625	-240.4893951416016	213.2453918457032	-1069.478759765625	-361.5157775878907	112.1857070922852	-1076.265380859375	-321.2101440429688	128.2274475097657	-1005.033081054688	-416.5039978027345	94.52401733398439	-1016.637573242188	-215.6941680908204	45.92089462280274	-1017.795227050781	-209.9181213378907	44.4919776916504	-1068.892700195313	-257.5987854003907	32.5981559753418	-1112.902709960938	-230.8959197998047	789.422302246094	-836.4956054687502	-167.3344879150391	770.6552734375002	-841.7077636718752	-143.3304595947266	792.8636474609377	-848.2654418945315	-139.4102325439453	689.9109497070314	-855.1679687500002	-40.56877517700196	595.7517089843751	-867.5103759765627	-43.17245864868165	594.3792724609376	-989.9776611328127	104.7516632080078	486.4287414550782	-895.098327636719	95.38423919677736	375.3663940429688	-859.1856079101565	129.4998626708985	406.6444091796876	-869.6379394531252	169.6825866699219	375.3381958007813	-898.1580810546877	198.1138000488282	238.4652252197266	-868.1813964843752	217.480941772461	265.6199035644532	-947.8044433593752	193.6497497558594	161.2832336425782	-933.1099243164065	349.4461669921876	310.7348632812501	-914.3262939453127	341.0072937011719	314.0608215332032	-867.6411132812502	323.3166809082032	269.2558593750001	-824.6229248046877	
1059	5.29	-224.0623779296876	1685.997680664063	-1116.11865234375	-379.0910339355469	1636.362426757813	-1179.669555664063	-373.6539611816407	1623.49658203125	-1034.906494140625	-432.510955810547	1465.964599609375	-1100.773315429688	-455.538543701172	1186.441772460938	-1065.279541015625	-288.1000976562501	1437.568725585938	-1108.2587890625	-346.7680358886719	1470.18701171875	-1251.377685546875	-184.4464569091797	1408.767822265625	-1381.524291992188	-156.2247314453125	1441.7431640625	-1353.776123046875	-115.3493041992188	1415.775390625	-1388.7138671875	-53.12395477294923	1418.1640625	-1389.217529296875	-43.41175842285157	1342.7509765625	-1368.670654296875	227.9802246093751	1404.658935546875	-1274.239501953125	241.5869293212891	1427.19287109375	-1341.80419921875	298.3375244140626	1435.610473632813	-1247.019653320313	-330.6091308593751	1483.269165039063	-968.5299072265627	-180.0960845947266	1459.308349609375	-840.5899047851565	-142.4009857177735	1464.35888671875	-871.3242187500002	-113.64501953125	1453.726928710938	-819.4514770507815	-41.3241310119629	1448.383544921875	-804.5875244140627	-38.5454330444336	1368.275268554688	-813.9566040039065	236.6181793212891	1423.866943359375	-877.8065185546877	246.0199127197266	1446.919067382813	-811.4545898437502	318.6657409667969	1455.321166992188	-884.4006958007815	-288.6894836425782	987.7217407226565	-1151.65673828125	-316.9983215332032	1026.832275390625	-905.5986938476565	-470.2333374023439	1034.535522460938	-1044.410400390625	-478.3305053710939	1001.376037597656	-1069.163696289063	-482.8132934570314	1007.16259765625	-1013.05908203125	-235.1878662109376	682.2872924804689	-1201.010131835938	-179.7367095947266	616.8971557617189	-1197.462280273438	-136.5343017578125	636.9470825195314	-1179.017700195313	-189.3701171875	560.7959594726564	-1177.770629882813	-173.505126953125	506.1237792968751	-1168.046630859375	-158.8732147216797	507.7229003906251	-1053.866455078125	-180.76318359375	325.6104125976563	-1077.43701171875	-237.9579772949219	292.4407958984376	-1136.915893554688	-204.2442932128907	279.6559448242188	-1107.754638671875	-240.9669342041016	213.6996002197266	-1069.34765625	-361.5780029296876	112.1604614257813	-1076.191528320313	-321.3377990722657	128.22314453125	-1005.039184570313	-416.5517578125001	94.46444702148439	-1016.568298339844	-215.6998596191407	46.02354431152344	-1017.805786132813	-209.9137725830079	44.49232482910157	-1068.8798828125	-257.5704345703126	32.65582656860352	-1112.929565429688	-230.9723510742188	790.5080566406252	-836.346374511719	-166.966064453125	771.950622558594	-840.0103759765627	-143.5603485107422	793.7055664062502	-848.1680297851565	-139.9610900878907	690.9335937500001	-854.9443969726565	-41.19786453247071	596.3446044921876	-867.2722778320315	-43.8462028503418	594.9829101562501	-989.725036621094	103.7210159301758	486.5772705078126	-894.7605590820315	94.09935760498048	375.5230102539063	-859.0283813476565	128.2066345214844	406.7333068847657	-869.2255859375002	168.5261383056641	375.0981445312501	-897.941589355469	196.5472259521485	238.3050689697266	-867.8047485351565	216.3369598388672	265.2812805175782	-947.3503417968752	191.2115173339844	161.4879302978516	-932.457702636719	347.8158264160157	309.8115539550782	-913.8970336914065	339.6022338867188	313.4495239257813	-867.071716308594	321.6715087890626	268.7337036132813	-824.1897583007815	
1060	5.295	-224.4406433105469	1687.859130859375	-1115.685546875	-379.0945434570313	1637.7138671875	-1179.481689453125	-373.8053283691407	1625.04833984375	-1034.6943359375	-432.4844360351564	1467.387939453125	-1100.587280273438	-455.3989562988282	1187.786376953125	-1065.181518554688	-288.1843261718751	1439.011840820313	-1108.059692382813	-346.6258544921876	1471.5830078125	-1251.1953125	-184.3096008300782	1410.174682617188	-1381.242919921875	-156.1547393798828	1443.198608398438	-1353.7177734375	-115.2767486572266	1417.149169921875	-1388.619262695313	-53.06186294555665	1419.4462890625	-1389.074340820313	-43.33710861206055	1343.823974609375	-1368.781616210938	227.9443054199219	1405.469604492188	-1274.128784179688	241.6014556884766	1428.236938476563	-1341.715209960938	298.4129028320313	1436.525512695313	-1246.806396484375	-330.6209716796876	1484.574462890625	-968.2271118164065	-180.1855010986328	1460.549682617188	-840.2880859375002	-142.9374237060547	1465.333129882813	-871.1751098632815	-114.005241394043	1454.901733398438	-819.059997558594	-41.32405853271485	1449.412841796875	-804.2651367187502	-38.63024139404298	1369.285400390625	-813.4836425781252	236.6891021728516	1425.012939453125	-877.3281860351565	245.9277496337891	1447.723999023438	-810.8330688476565	318.6349182128907	1456.046997070313	-883.7492675781252	-288.4419555664063	989.179382324219	-1151.473754882813	-316.5351867675782	1028.140747070313	-905.5352783203127	-470.0039672851564	1036.046752929688	-1044.281616210938	-477.7317199707032	1003.007629394531	-1069.01123046875	-482.5435791015626	1008.775024414063	-1012.866760253906	-236.0758819580079	682.7734375000001	-1200.94287109375	-180.7080688476563	617.6199951171876	-1197.147216796875	-137.2956848144532	637.7431030273439	-1178.878784179688	-191.007568359375	561.8607788085939	-1177.353759765625	-175.0366668701172	506.6026306152345	-1167.96728515625	-160.3614501953125	508.4866333007814	-1053.46728515625	-181.759521484375	326.1036987304688	-1077.225952148438	-238.6545867919922	292.8299255371094	-1136.804931640625	-204.6726837158204	280.5325622558594	-1107.358154296875	-241.3183135986329	214.2345428466797	-1069.203002929688	-361.6217651367188	112.1876296997071	-1076.134643554688	-321.4531250000001	128.1654968261719	-1005.020263671875	-416.5369262695314	94.44500732421876	-1016.576965332031	-215.6968688964844	45.9508171081543	-1017.800964355469	-209.8876190185547	44.49056625366212	-1068.875366210938	-257.5157775878907	32.67000961303712	-1112.988891601563	-231.7892761230469	791.1973266601565	-836.8752441406252	-167.2713623046875	772.8276367187502	-840.461608886719	-143.8753509521485	794.6082153320315	-847.935729980469	-140.3103179931641	691.6725463867189	-854.8536376953127	-41.86264801025391	596.9200439453126	-867.039978027344	-44.44022369384766	595.7333984375001	-989.5867309570315	102.6424407958985	486.7188110351564	-894.528991699219	92.71540832519533	375.7212219238282	-858.738708496094	127.1596984863282	406.8596496582032	-869.0196533203127	167.1409912109375	375.0710754394532	-897.5452270507815	194.8597412109376	238.203598022461	-867.4093017578127	214.5842742919922	265.1642150878907	-946.9443359375002	189.2576446533203	161.4543151855469	-932.1209716796877	346.6863098144532	309.3157958984376	-913.2156982421877	338.1456298828126	312.9569091796876	-866.5163574218752	319.8326721191407	268.3499755859376	-823.7031860351565	
